HIERARCHY
ROOT Hips
{
	OFFSET 0.00 0.00 0.00
	CHANNELS 6 Xposition Yposition Zposition Xrotation Yrotation Zrotation
	JOINT RightUpLeg
	{
		OFFSET -4.47808 0.00000 0.00000
		CHANNELS 3 Xrotation Yrotation Zrotation
		JOINT RightLeg
		{
			OFFSET 0.00000 -16.40577 0.00000
			CHANNELS 3 Xrotation Yrotation Zrotation
			JOINT RightFoot
			{
				OFFSET 0.00000 -14.64414 0.00000
				CHANNELS 3 Xrotation Yrotation Zrotation
				JOINT RightToeBase
				{
					OFFSET 0.00000 -1.50274 5.60831
					CHANNELS 3 Xrotation Yrotation Zrotation
					End Site
					{
						OFFSET 0.00000 0.00000 2.95275
					}
				}
			}
		}
	}
	JOINT LeftUpLeg
	{
		OFFSET 4.47808 0.00000 0.00000
		CHANNELS 3 Xrotation Yrotation Zrotation
		JOINT LeftLeg
		{
			OFFSET 0.00000 -16.40577 0.00000
			CHANNELS 3 Xrotation Yrotation Zrotation
			JOINT LeftFoot
			{
				OFFSET 0.00000 -14.64414 0.00000
				CHANNELS 3 Xrotation Yrotation Zrotation
				JOINT LeftToeBase
				{
					OFFSET 0.00000 -1.50274 5.60831
					CHANNELS 3 Xrotation Yrotation Zrotation
					End Site
					{
						OFFSET 0.00000 0.00000 2.95275
					}
				}
			}
		}
	}
	JOINT Spine
	{
		OFFSET 0.00000 6.06821 0.00000
		CHANNELS 3 Xrotation Yrotation Zrotation
		JOINT RightShoulder
		{
			OFFSET 0.00000 10.01392 0.00000
			CHANNELS 3 Xrotation Yrotation Zrotation
			JOINT RightArm
			{
				OFFSET -7.19022 0.00000 0.00000
				CHANNELS 3 Xrotation Yrotation Zrotation
				JOINT RightForeArm
				{
					OFFSET -10.17747 0.00000 0.00000
					CHANNELS 3 Yrotation Zrotation Xrotation
					JOINT RightHand
					{
						OFFSET -8.39211 0.00000 0.00000
						CHANNELS 3 Xrotation Yrotation Zrotation
						End Site
						{
							OFFSET -3.93700 0.00000 0.00000
						}
						JOINT RightHandThumb1
						{
							OFFSET 0.00000 0.00000 0.00000
							CHANNELS 3 Xrotation Zrotation Yrotation
							End Site
							{
								OFFSET 0.00000 0.00000 3.93700
							}
						}
					}
				}
			}
		}
		JOINT LeftShoulder
		{
			OFFSET 0.00000 10.01392 0.00000
			CHANNELS 3 Xrotation Yrotation Zrotation
			JOINT LeftArm
			{
				OFFSET 7.19022 0.00000 0.00000
				CHANNELS 3 Xrotation Yrotation Zrotation
				JOINT LeftForeArm
				{
					OFFSET 10.17747 0.00000 0.00000
					CHANNELS 3 Yrotation Zrotation Xrotation
					JOINT LeftHand
					{
						OFFSET 8.39211 0.00000 0.00000
						CHANNELS 3 Xrotation Yrotation Zrotation
						End Site
						{
							OFFSET 3.93700 0.00000 0.00000
						}
						JOINT LeftHandThumb1
						{
							OFFSET 0.00000 0.00000 0.00000
							CHANNELS 3 Xrotation Zrotation Yrotation
							End Site
							{
								OFFSET 0.00000 0.00000 3.93700
							}
						}
					}
				}
			}
		}
		JOINT Head
		{
			OFFSET 0.00000 15.77748 0.00000
			CHANNELS 3 Xrotation Yrotation Zrotation
			End Site
			{
				OFFSET 0.00000 4.52755 0.00000
			}
		}
	}
}
MOTION
Frames: 7
Frame Time: 0.008333
 1.8750 34.0131 0.9907 88.8264 -25.1456 13.4473 4.6368 17.6273 -25.6106 150.4195 0.0000 0.0000 35.5093 7.1362 3.3646 -21.1466 -0.0000 -0.0000 -90.0214 -9.2101 14.3423 27.1179 -0.0000 0.0000 -22.2935 15.3201 0.9811 6.5228 0.0000 -0.0000 -17.4117 -4.2949 -2.1141 30.2732 -26.6695 -12.5160 32.4936 57.8304 49.3478 41.5336 0.0000 -36.7098 2.6973 -10.3059 14.7529 32.8623 0.0000 -24.3270 -16.3994 30.8166 41.6852 -134.6410 -20.5711 -43.2836 -60.3360 -0.0000 -13.6057 -3.2832 15.0314 12.4724 33.1476 -0.0000 26.2537 -17.2117 29.5588 -1.7238
 1.8859 34.0153 0.9943 88.9026 -25.1649 13.5693 4.6584 17.5011 -25.6022 150.3985 0.0000 0.0000 35.4546 7.0676 3.3184 -21.3571 -0.0000 -0.0000 -90.0316 -9.1582 14.3655 27.0791 0.0000 0.0000 -22.3054 15.3604 0.8388 6.6184 0.0000 0.0000 -17.4342 -4.3616 -2.1098 30.3171 -26.6930 -12.5222 32.5119 57.8420 49.3134 41.5623 0.0000 -36.6450 2.6845 -10.2751 14.7279 32.8623 0.0000 -24.3270 -16.3734 30.8593 41.6629 -134.6118 -20.5589 -43.1731 -60.3692 -0.0000 -13.5921 -3.2580 15.0008 12.4032 33.1476 -0.0000 26.2537 -17.1442 29.6859 -1.7643
 1.8976 34.0190 0.9984 88.9955 -25.1968 13.7002 4.6758 17.3923 -25.6243 150.3627 0.0000 0.0000 35.3778 7.1299 3.1600 -20.8913 0.0000 -0.0000 -90.0403 -9.1529 14.4030 27.0496 -0.0000 0.0000 -22.3207 15.4555 0.6263 6.7422 -0.0000 -0.0000 -17.4689 -4.4113 -2.0983 30.3921 -26.7495 -12.5225 32.5817 57.9130 49.1946 41.6038 0.0000 -36.7226 2.6864 -10.2775 14.7346 32.8623 0.0000 -24.3270 -16.3474 30.8938 41.6076 -134.5800 -20.5923 -43.0653 -60.4123 -0.0000 -13.6054 -3.2334 15.0113 12.3044 33.1476 -0.0000 26.2537 -17.0593 29.8090 -1.8201
 1.9073 34.0257 1.0020 89.0957 -25.2467 13.8240 4.7024 17.3276 -25.6194 150.3212 0.0000 0.0000 35.4815 7.2396 3.3990 -20.4464 0.0000 -0.0000 -90.0602 -9.1658 14.4816 27.0622 0.0000 -0.0000 -22.3209 15.5055 0.2865 6.8210 0.0000 0.0000 -17.5152 -4.4572 -2.0958 30.3913 -26.7514 -12.5531 32.7634 57.9730 49.0603 41.6736 0.0000 -36.8453 2.6647 -10.2921 14.6006 32.8623 0.0000 -24.3270 -16.3153 30.9052 41.5934 -134.5342 -20.6042 -42.9544 -60.5409 -0.0000 -13.5609 -3.2213 15.0402 12.2370 33.1476 -0.0000 26.2537 -16.9771 29.9057 -1.8090
 1.9150 34.0362 1.0051 89.2254 -25.3176 13.9568 4.6725 17.2411 -25.6056 150.3173 0.0000 0.0000 35.4877 7.1933 3.3371 -20.7489 0.0000 0.0000 -90.1225 -9.1289 14.6076 27.1021 -0.0000 0.0000 -22.3223 15.5136 -0.1217 7.0007 0.0000 -0.0000 -17.5869 -4.4838 -2.0994 30.4043 -26.7565 -12.5684 32.9010 58.0198 48.9485 41.7252 0.0000 -36.8597 2.6702 -10.3285 14.5808 32.8623 0.0000 -24.3270 -16.2880 30.9284 41.5789 -134.4984 -20.6543 -42.8784 -60.6761 -0.0000 -13.6688 -3.2535 15.0674 12.3349 33.1476 -0.0000 26.2537 -16.9022 29.9969 -1.7636
 1.9209 34.0475 1.0081 89.3424 -25.3933 14.0825 4.6610 17.1182 -25.5868 150.3119 -0.0000 -0.0000 35.4506 7.1513 3.3235 -20.6758 -0.0000 -0.0000 -90.1962 -9.0214 14.7492 27.1510 0.0000 0.0000 -22.3185 15.4576 -0.5521 7.2118 0.0000 -0.0000 -17.6458 -4.5316 -2.1072 30.4289 -26.7482 -12.5964 33.0228 58.0751 48.8402 41.8014 0.0000 -37.0071 2.6901 -10.4143 14.5703 32.8623 0.0000 -24.3270 -16.2709 30.9538 41.5796 -134.4363 -20.7054 -42.7743 -60.8186 -0.0000 -13.6892 -3.2347 15.0416 12.2857 33.1476 -0.0000 26.2537 -16.8463 30.1105 -1.7099
 1.9203 34.0621 1.0108 89.4704 -25.5077 14.1951 4.6521 17.0564 -25.5273 150.3208 -0.0000 0.0000 35.4314 7.1533 3.1509 -20.6301 0.0000 0.0000 -90.2943 -8.8353 14.9668 27.2016 0.0000 -0.0000 -22.3229 15.2947 -1.0699 7.4766 -0.0000 -0.0000 -17.7043 -4.5338 -2.1180 30.4696 -26.7674 -12.5723 33.1955 58.1573 48.6749 41.8701 0.0000 -37.2225 2.6543 -10.3737 14.4375 32.8623 0.0000 -24.3270 -16.2545 30.9865 41.5845 -134.4692 -20.7284 -42.7453 -60.9382 -0.0000 -13.6316 -3.1781 15.0733 12.0526 33.1476 -0.0000 26.2537 -16.8280 30.1671 -1.6215
